<svg width="32" height="32" viewBox="0 0 32 32" fill="none" xmlns="http://www.w3.org/2000/svg">
  <!-- 简洁的蓝色背景圆形，深色边框 -->
  <circle cx="16" cy="16" r="15" fill="#4F46E5" stroke="#1F2937" stroke-width="2"/>
  
  <!-- 主对话框气泡 - 简洁设计 -->
  <g transform="translate(16, 16)">
    <path 
      d="M-8 -5 C-9.5 -5 -10.5 -4 -10.5 -2.5 L-10.5 2.5 C-10.5 4 -9.5 5 -8 5 L-2.5 5 L0 9 L2.5 5 L8 5 C9.5 5 10.5 4 10.5 2.5 L10.5 -2.5 C10.5 -4 9.5 -5 8 -5 Z" 
      fill="#ffffff" 
      opacity="0.95">
    </path>
    
    <!-- 简洁消息内容条 -->
    <g opacity="0.8">
      <rect x="-6.5" y="-2.5" width="8" height="1.5" rx="0.75" fill="#4F46E5" opacity="0.8"/>
      <rect x="-6.5" y="-0.5" width="10" height="1.5" rx="0.75" fill="#06B6D4" opacity="0.7"/>
      <rect x="-6.5" y="1.5" width="5" height="1.5" rx="0.75" fill="#10B981" opacity="0.6"/>
    </g>
  </g>
  
  <!-- 次要对话框气泡 - 简洁版 -->
  <g transform="translate(24, 8)">
    <path 
      d="M-4 -2.5 C-4.5 -2.5 -5 -2 -5 -1.5 L-5 1.5 C-5 2 -4.5 2.5 -4 2.5 L-1.5 2.5 L0 4 L1.5 2.5 L4 2.5 C4.5 2.5 5 2 5 1.5 L5 -1.5 C5 -2 4.5 -2.5 4 -2.5 Z" 
      fill="#ffffff" 
      opacity="0.9">
    </path>
    
    <!-- 简单消息指示器 -->
    <g opacity="0.7">
      <rect x="-2.5" y="-0.5" width="4" height="0.8" rx="0.4" fill="#F59E0B" opacity="0.8"/>
      <rect x="-2.5" y="0.7" width="2.5" height="0.8" rx="0.4" fill="#EF4444" opacity="0.7"/>
    </g>
  </g>
</svg>